{"title":"Merantau.Warrior.2009.DVDRip.H264.AAC-D34dLy","uid":5588257,"size":367361179,"categoryP":"video","categoryS":"movies","magnet":"?xt=urn:btih:bd98790555d4a9fd10037336b2c76c3202741a61&amp;dn=Merantau.Warrior.2009.DVDRip.H264.AAC-D34dLy&amp;tr=udp%3A%2F%2Ftracker.openbittorrent.com%3A80&amp;tr=udp%3A%2F%2Fopen.demonii.com%3A1337&amp;tr=udp%3A%2F%2Ftracker.coppersurfer.tk%3A6969&amp;tr=udp%3A%2F%2Fexodus.desync.com%3A6969","seeders":1,"leechers":0,"uploader":"sweee2","files":3,"time":1274771249,"description":" &lt;a href=&quot;http://img693.imageshack.us/img693/5750/posterna.jpg&quot; rel=&quot;nofollow&quot; target=&quot;_NEW&quot;&gt;http://img693.imageshack.us/img693/5750/posterna.jpg&lt;/a&gt;\n\n\nTitle: Merantau\nYear: 2009\nDirected by: Gareth Evans\nGenre: Action | Drama\nRuntime: 1 hr 47 mins\nCountry: Indonesia\nLanguage: Indonesian | English\nSubtitles: English\nEncoded By: D34dLy\nIMDB: [url]http://www.imdb.com/title/tt1368116/[/url]\n\nCast:\n\nIko Uwais ... Yuda\nSisca Jessica ... Astri\nChristine Hakim ... Wulan\nMads Koudal ... Ratger\nYusuf Aulia ... Adit\nAlex Abbad ... Johni\nYayan Ruhian ... Eric\nLaurent Buson ... Luc\nDoni Alamsyah ... Yayan (as Donny Alamsyah)\nRatna Galih ... Ayi\n\nSynopsis:\n\nIn Minangkabau, West Sumatra, Yuda a skilled practitioner of Silat Harimau is in the final preparations to begin his 'merantau,' a century's old rites of passage carried out by the community's young men which will see him leave the comforts of his village and make a name for him in the bustling city of Jakarta. After a series of setbacks, Yuda is left homeless and uncertain about his new future. Later on, he encounters an orphan named Astri and protects him from becoming a victim of a European human trafficking ring led by Ratger and his right-hand man Luc. With Ratger injured in the melee, he seeks both the boy and bloody retribution. Yuda is then forced to go on the run with Astri and her younger brother Adit. In the end, he has no choice but to face his attackers in an adrenaline charged finale.\n\nGeneral Info:\nComplete name : Merantau.Warrior.2009.DVDRip.H264.AAC-D34dLy.mp4\nFormat : MPEG-4\nFormat profile : Base Media\nCodec ID : isom\nFile size : 350 MiB\nDuration : 1h 47mn\nOverall bit rate : 456 Kbps\n\n\nVideo Info:\nID : 1\nFormat : AVC\nFormat/Info : Advanced Video Codec\nFormat profile : &lt;a class=&quot;__cf_email__&quot; href=&quot;/cdn-cgi/l/email-protection&quot; data-cfemail=&quot;236b4a444b636f170d12&quot;&gt;[email&amp;#160;protected]&lt;/a&gt;&lt;script cf-hash='f9e31' type=&quot;text/javascript&quot;&gt;\n/* &lt;![CDATA[ */!function(){try{var t=&quot;currentScript&quot;in document?document.currentScript:function(){for(var t=document.getElementsByTagName(&quot;script&quot;),e=t.length;e--;)if(t[e].getAttribute(&quot;cf-hash&quot;))return t[e]}();if(t&amp;&amp;t.previousSibling){var e,r,n,i,c=t.previousSibling,a=c.getAttribute(&quot;data-cfemail&quot;);if(a){for(e=&quot;&quot;,r=parseInt(a.substr(0,2),16),n=2;a.length-n;n+=2)i=parseInt(a.substr(n,2),16)^r,e+=String.fromCharCode(i);e=document.createTextNode(e),c.parentNode.replaceChild(e,c)}}}catch(u){}}();/* ]]&gt; */&lt;/script&gt;\nFormat settings, CABAC : Yes\nFormat settings, ReFrames : 3 frames\nCodec ID : avc1\nCodec ID/Info : Advanced Video Coding\nDuration : 1h 47mn\nBit rate mode : Variable\nBit rate : 391 Kbps\nMaximum bit rate : 2 807 Kbps\nWidth : 672 pixels\nHeight : 384 pixels\nDisplay aspect ratio : 16:9\nFrame rate mode : Constant\nFrame rate : 25.000 fps\nResolution : 8 bits\nColorimetry : 4:2:0\nScan type : Progressive\nBits/(Pixel*Frame) : 0.061\nStream size : 299 MiB (85%)\nTitle : Imported with GPAC 0.4.6-DEV (build 1)\nWriting library : x264 core 80 r1376M 3feaec2\n\n\nAudio Info:\nID : 2\nFormat : AAC\nFormat/Info : Advanced Audio Codec\nFormat version : Version 4\nFormat profile : LC\nFormat settings, SBR : Yes\nFormat settings, PS : No\nCodec ID : 40\nDuration : 1h 47mn\nBit rate mode : Variable\nBit rate : 64.0 Kbps\nMaximum bit rate : 108 Kbps\nChannel(s) : 2 channels\nChannel positions : Front: L R\nSampling rate : 44.1 KHz\nStream size : 49.1 MiB (14%)\n\n\n\nScreenshots:\n\n &lt;a href=&quot;\nhttp://img341.imageshack.us/img341/9018/merantauwarrior2009dvdr.jpg&quot; rel=&quot;nofollow&quot; target=&quot;_NEW&quot;&gt;\nhttp://img341.imageshack.us/img341/9018/merantauwarrior2009dvdr.jpg&lt;/a&gt;\nhttp://img535.imageshack.us/img535/2701/aaaaalr.jpg\nhttp://img688.imageshack.us/img688/1631/aaaamw.jpg\nhttp://img709.imageshack.us/img709/4285/aaaxp.jpg\nhttp://img405.imageshack.us/img405/8305/15235188.jpg\nhttp://img340.imageshack.us/img340/6715/34625062.jpg\n","torrent":{"xt":"urn:btih:bd98790555d4a9fd10037336b2c76c3202741a61","amp;dn":"Merantau.Warrior.2009.DVDRip.H264.AAC-D34dLy","amp;tr":["udp%3A%2F%2Ftracker.openbittorrent.com%3A80","udp%3A%2F%2Fopen.demonii.com%3A1337","udp%3A%2F%2Ftracker.coppersurfer.tk%3A6969","udp%3A%2F%2Fexodus.desync.com%3A6969"],"infoHash":"bd98790555d4a9fd10037336b2c76c3202741a61","infoHashBuffer":{"type":"Buffer","data":[189,152,121,5,85,212,169,253,16,3,115,54,178,199,108,50,2,116,26,97]},"announce":[],"urlList":[]}}